<?xml version="1.0" ?><svg enable-background="new 0 0 512 512" id="Layer_1" version="1.1" viewBox="0 0 512 512" xml:space="preserve" xmlns="http://www.w3.org/2000/svg" xmlns:xlink="http://www.w3.org/1999/xlink"><g><g><linearGradient gradientUnits="userSpaceOnUse" id="SVGID_1_" x1="-0.0000027" x2="512" y1="256" y2="256"><stop offset="0" style="stop-color:#8DC63F"/><stop offset="1" style="stop-color:#76B83F"/></linearGradient><circle cx="256" cy="256" fill="url(#SVGID_1_)" r="256"/><linearGradient gradientUnits="userSpaceOnUse" id="SVGID_2_" x1="42.6666641" x2="469.3333435" y1="256.0005188" y2="256.0005188"><stop offset="0" style="stop-color:#76B83F"/><stop offset="1" style="stop-color:#8DC63F"/></linearGradient><path d="M256,469.3338623c-117.6314697,0-213.3333435-95.7023926-213.3333435-213.3333435    c0-117.6314545,95.7018661-213.333313,213.3333435-213.333313c117.6357422,0,213.3333435,95.7018661,213.3333435,213.333313    C469.3333435,373.6314697,373.6357422,469.3338623,256,469.3338623z" fill="url(#SVGID_2_)"/></g><g><path d="M368.8912048,185.7967987c0-8.2848053-6.7157288-14.9994659-14.9994812-14.9994659H174.1077271    c-8.2831879,0-14.9989319,6.7146606-14.9989319,14.9994659v137.1226654h209.7824097V185.7967987z M343.8922729,307.918396    H184.1087952V195.7951965h159.7834778V307.918396z" opacity="0.3"/><polygon opacity="0.3" points="264,332.9162598 144.0053253,332.9162598 144.0053253,346.5594788 155.2549286,357.2021484     264,357.2021484 372.7450562,357.2021484 383.9941406,346.5594788 383.9941406,332.9162598   "/></g><g><path d="M360.8912048,177.7967987c0-8.2848053-6.7157288-14.9994659-14.9994812-14.9994659H166.1077271    c-8.2831879,0-14.9989319,6.7146606-14.9989319,14.9994659v137.1226654h209.7824097V177.7967987z M335.8922729,299.918396    H176.1087952V187.7951965h159.7834778V299.918396z" fill="#FFFFFF"/><polygon fill="#FFFFFF" points="256,324.9162598 136.0053253,324.9162598 136.0053253,338.5594788 147.2549286,349.2021484     256,349.2021484 364.7450562,349.2021484 375.9941406,338.5594788 375.9941406,324.9162598   "/></g></g></svg>